<svg xmlns="http://www.w3.org/2000/svg" viewBox="0 0 49.403 46.457">
  <defs>
    <style>
      .cls-1 {
        fill: rgba(247,142,30,0.6);
      }

      .cls-2 {
        fill: #fff;
      }

      .cls-2, .cls-3 {
        stroke: #444;
        stroke-linecap: round;
        stroke-linejoin: round;
        stroke-miterlimit: 10;
        stroke-width: 1.4px;
      }

      .cls-3 {
        fill: none;
      }
    </style>
  </defs>
  <g id="jern" transform="translate(0.047 -0.1)">
    <circle id="Ellipse_16" data-name="Ellipse 16" class="cls-1" cx="8.5" cy="8.5" r="8.5" transform="translate(32.356 29.557)"/>
    <path id="Path_631" data-name="Path 631" class="cls-2" d="M10.647,149.9H2.6a1.915,1.915,0,0,0-1.65,2.9A10.545,10.545,0,0,0,5.1,156.929c2.274,1.13,9.2,4.249,8.809,7.731" transform="translate(0 -129.727)"/>
    <path id="Path_632" data-name="Path 632" class="cls-3" d="M99.4,139.423h9.68a1.569,1.569,0,0,0,1.572-1.572v-3.378a1.569,1.569,0,0,0-1.572-1.572H80.455A1.472,1.472,0,0,0,79,134.368v8.025" transform="translate(-68.146 -114.936)"/>
    <path id="Path_633" data-name="Path 633" class="cls-2" d="M271.5,186.511a14.991,14.991,0,0,1,2.326-1.611" transform="translate(-235.633 -160.179)"/>
    <path id="Path_634" data-name="Path 634" class="cls-3" d="M100.118,290.971H79.381a.48.48,0,0,1-.481-.481v-4.21a.48.48,0,0,1,.481-.481H97.506" transform="translate(-68.059 -247.969)"/>
    <line id="Line_14" data-name="Line 14" class="cls-3" x1="16.8" transform="translate(22.094 7.829)"/>
    <path id="Path_635" data-name="Path 635" class="cls-3" d="M106.667,14.664h-6.523a.843.843,0,0,1-.845-.845V1.645A.843.843,0,0,1,100.145.8h6.523a.843.843,0,0,1,.845.845V13.819A.843.843,0,0,1,106.667,14.664Z" transform="translate(-85.808 0)"/>
    <path id="Path_636" data-name="Path 636" class="cls-3" d="M258.407,232.3l1.235,2.509,2.762.4-1.994,1.945.467,2.762-2.471-1.3-2.48,1.3.477-2.762-2-1.945,2.772-.4Z" transform="translate(-218.411 -200.142)"/>
    <circle id="Ellipse_15" data-name="Ellipse 15" class="cls-3" cx="8.498" cy="8.498" r="8.498" transform="translate(31.5 27.462)"/>
  </g>
</svg>
