<svg xmlns="http://www.w3.org/2000/svg" viewBox="0 0 245 53.26"><title>logo</title><path d="M7.34,11.9h8.28L13,24.48h.1L25.89,11.9H36.8L21.7,25.11l9.44,19H21.7L15.2,30.56l-4.3,3.67-2,9.86H.63Z" transform="translate(0 -0.37)" fill="#807f83"/><path d="M40.05,11.9H65.31l-1.57,7.24h-17l-1,5.13H61.43l-1.36,6.4H44.45l-1.26,6.18H60.28l-1.47,7.24H33.44Z" transform="translate(0 -0.37)" fill="#807f83"/><path d="M91.1,35.07l1.37-6.5h13.62l-1.36,6.5Z" transform="translate(0 -0.37)" fill="#807f83"/><path d="M114.69,11.9h14.78c8.6,0,9.86,3.57,9.86,7,0,4.19-2.21,7.13-5.87,8V27c2.83.63,4.5,3.46,4.5,6.29,0,6.5-5.13,10.8-14.36,10.8H108.19Zm2.93,25.58h6.5c2.83,0,5.67-.63,5.67-4.09,0-2.93-2.63-3.24-4.83-3.24H119.2Zm2.63-12.89h5.87c3.35,0,4.93-1.05,4.93-3.57,0-2.3-2.41-2.51-4.2-2.51H121.4Z" transform="translate(0 -0.37)" fill="#807f83"/><path d="M146.66,11.9h25.27l-1.57,7.24h-17l-1,5.13h15.72l-1.36,6.4H151.07l-1.26,6.18h17.08l-1.46,7.24H140.06Z" transform="translate(0 -0.37)" fill="#807f83"/><path d="M176.65,11.9h15.51c5.77,0,10.17,1.47,10.17,8.39,0,4.82-2.3,8.28-7.23,9v.1c2.3.63,3.25,2.2,3.25,5.35,0,2.3-.11,4.19-.11,6a7.43,7.43,0,0,0,.53,3.46h-8.28a11,11,0,0,1-.32-1.88c0-1.68.21-3.36.21-5.56,0-2.83-1.15-4.3-4.09-4.3h-5.45l-2.41,11.74h-8.28ZM182,26.16h6.61c2.93,0,5.55-.94,5.55-4.4,0-2.73-2.3-3.36-4.4-3.36h-6.08Z" transform="translate(0 -0.37)" fill="#807f83"/><path d="M227.39,22.81c.1-3-2.31-4.72-5.24-4.72-6.71,0-9.44,6.81-9.44,12.58,0,4.51,2.2,7.13,6.4,7.13,3.87,0,6-1.37,7.23-5.14h-5.77l1.26-6.18h13.1l-3.66,17.61H226l.21-3.25h-.1c-1.89,2.62-4.09,3.88-9.12,3.88-6,0-12.58-3.25-12.58-14,0-2.41,1.15-19.5,17.82-19.5,8,0,13.1,3.67,12.9,11.64Z" transform="translate(0 -0.37)" fill="#807f83"/><path d="M71.5.79l-6.82,43.3h23.8l1-6.61H74L80.09.79Z" transform="translate(0 -0.37)" fill="#807f83"/><path d="M.42.48h69.3l-.63,3.46H0Z" transform="translate(0 -0.37)" fill="#f78e1e"/><path d="M84.18,4,84.71.37H245l-.63,3.57Z" transform="translate(0 -0.37)" fill="#f78e1e"/><path d="M.42,52.37H244.79l-.31,1.26H.1Z" transform="translate(0 -0.37)" fill="#f78e1e"/><path d="M239.66,5.3a4,4,0,0,1,4.08,3.92v.06a3.94,3.94,0,0,1-3.89,4h-.19a4,4,0,0,1-4.09-3.92V9.28a3.93,3.93,0,0,1,3.89-4Zm-.11.84a3.06,3.06,0,0,0-3,3.09v0a3.09,3.09,0,0,0,3,3.15h.12a3,3,0,0,0,3-3V9.28a3.09,3.09,0,0,0-3-3.14ZM239,11.38h-.95v-4a6,6,0,0,1,1.58-.11,2.12,2.12,0,0,1,1.36.32,1.26,1.26,0,0,1,.42.83,1,1,0,0,1-.84,1h0c.42.1.63.42.73.94s.21.84.32.94H240.6a3.06,3.06,0,0,1-.31-.94.74.74,0,0,0-.83-.63H239Zm0-2.2h.42c.52,0,.94-.21.94-.63s-.32-.63-.84-.63H239V9.18Z" transform="translate(0 -0.37)" fill="#807f83"/></svg>