<svg xmlns="http://www.w3.org/2000/svg" viewBox="0 0 158.942 53.671">
  <defs>
    <style>
      .cls-1, .cls-2 {
        fill: #58585a;
      }

      .cls-1 {
        fill-rule: evenodd;
      }
    </style>
  </defs>
  <g id="box" transform="translate(-482.774 -1000)">
    <path id="Path_386" data-name="Path 386" class="cls-1" d="M181.3,21.3v5.522h5l-3.279,2.589V28.376H181.3V32.69h1.726V31.482l3.279-2.589h13.806l.173-3.452h12.425l1.035,2.243,3.8-2.243h12.08L231,27.685l1.208-2.243h10.7l-.173-1.553H305.9l3.279-2.589H181.3Z" transform="translate(304.58 1015.459)"/>
    <rect id="Rectangle_1112" data-name="Rectangle 1112" class="cls-2" width="1.553" height="11.39" transform="translate(593.913 1036.759)"/>
    <path id="Path_387" data-name="Path 387" class="cls-2" d="M253.861,30.692h-2.416a.371.371,0,0,1-.345-.345v-8.8a.371.371,0,0,1,.345-.345h2.416a.371.371,0,0,1,.345.345v8.8A.371.371,0,0,1,253.861,30.692Z" transform="translate(355.238 1015.386)"/>
    <rect id="Rectangle_1113" data-name="Rectangle 1113" class="cls-2" width="2.416" height="10.7" transform="translate(606.683 1042.626)"/>
    <path id="Path_388" data-name="Path 388" class="cls-2" d="M254.769,31.463H250.8V31.29l.863-.69h2.416l.69.69Z" transform="translate(355.02 1022.208)"/>
    <rect id="Rectangle_1114" data-name="Rectangle 1114" class="cls-2" width="1.553" height="11.39" transform="translate(560.26 1036.759)"/>
    <rect id="Rectangle_1115" data-name="Rectangle 1115" class="cls-2" width="41.073" height="2.071" transform="translate(557.327 1046.423)"/>
    <rect id="Rectangle_1116" data-name="Rectangle 1116" class="cls-2" width="41.073" height="2.071" transform="translate(557.327 1040.901)"/>
    <rect id="Rectangle_1117" data-name="Rectangle 1117" class="cls-2" width="2.071" height="7.593" transform="translate(598.4 1040.901)"/>
    <path id="Path_389" data-name="Path 389" class="cls-2" d="M338.442,37.449H179.5V0H338.442ZM180.881,35.9H336.889V1.553H180.881V35.9Z" transform="translate(303.274 1000)"/>
    <g id="Group_81" data-name="Group 81" transform="translate(616.175 1036.068)">
      <g id="Group_80" data-name="Group 80">
        <path id="Path_390" data-name="Path 390" class="cls-1" d="M270.779,20.9H256.8v3.452l13.979-.69Z" transform="translate(-256.8 -20.9)"/>
      </g>
    </g>
    <g id="Group_82" data-name="Group 82" transform="translate(500.377 1037.622)">
      <path id="Path_391" data-name="Path 391" class="cls-1" d="M207.648,30.947h-1.035a7.46,7.46,0,0,1-2.243,4.66h0a7.5,7.5,0,0,1-10.7,0,7.919,7.919,0,0,1-2.243-4.66H189.7v-.69a9.512,9.512,0,0,1,2.589-6.9h0a6.567,6.567,0,0,1,2.243-1.553h8.974a7.38,7.38,0,0,1,2.243,1.553h0a9.863,9.863,0,0,1,1.9,2.761v4.832Zm-8.629-4.832a4.142,4.142,0,1,0,4.142,4.142A4.2,4.2,0,0,0,199.019,26.114Z" transform="translate(-189.7 -21.8)"/>
      <path id="Path_392" data-name="Path 392" class="cls-1" d="M195.826,25.7a1.729,1.729,0,0,0-1.726,1.726,1.63,1.63,0,0,0,1.726,1.726,1.729,1.729,0,0,0,1.726-1.726A1.63,1.63,0,0,0,195.826,25.7Z" transform="translate(-186.507 -18.97)"/>
      <path id="Path_393" data-name="Path 393" class="cls-1" d="M217.648,30.947h-1.035a7.461,7.461,0,0,1-2.243,4.66h0a7.5,7.5,0,0,1-10.7,0,7.919,7.919,0,0,1-2.243-4.66H199.7v-.69a9.513,9.513,0,0,1,2.589-6.9h0a6.567,6.567,0,0,1,2.243-1.553h8.974a7.38,7.38,0,0,1,2.243,1.553h0a9.863,9.863,0,0,1,1.9,2.761v4.832Zm-8.629-4.832a4.142,4.142,0,1,0,4.142,4.142A4.2,4.2,0,0,0,209.019,26.114Z" transform="translate(-182.442 -21.8)"/>
      <path id="Path_394" data-name="Path 394" class="cls-1" d="M205.826,25.7a1.729,1.729,0,0,0-1.726,1.726,1.63,1.63,0,0,0,1.726,1.726,1.726,1.726,0,0,0,0-3.452Z" transform="translate(-179.249 -18.97)"/>
      <path id="Path_395" data-name="Path 395" class="cls-1" d="M210.1,30.947h1.035a7.461,7.461,0,0,0,2.243,4.66h0a7.5,7.5,0,0,0,10.7,0,7.919,7.919,0,0,0,2.243-4.66h1.726v-.69a9.513,9.513,0,0,0-2.589-6.9h0a6.567,6.567,0,0,0-2.243-1.553h-8.974A7.38,7.38,0,0,0,212,23.353h0a9.863,9.863,0,0,0-1.9,2.761v4.832Zm8.456-4.832a4.142,4.142,0,1,1-4.142,4.142A4.32,4.32,0,0,1,218.556,26.114Z" transform="translate(-174.894 -21.8)"/>
      <path id="Path_396" data-name="Path 396" class="cls-1" d="M215.726,25.7a1.729,1.729,0,0,1,1.726,1.726,1.63,1.63,0,0,1-1.726,1.726,1.726,1.726,0,1,1,0-3.452Z" transform="translate(-172.064 -18.97)"/>
    </g>
    <path id="Path_463" data-name="Path 463" class="cls-2" d="M330.86,3.435V30.53H183.135V3.435H330.86m.863-1.035H182.1V31.393H331.723V2.4Z" transform="translate(305.161 1001.742)"/>
  </g>
</svg>
