<svg xmlns="http://www.w3.org/2000/svg" viewBox="0 0 158.942 53.671">
  <defs>
    <style>
      .cls-1, .cls-2 {
        fill: #58585a;
      }

      .cls-1 {
        fill-rule: evenodd;
      }
    </style>
  </defs>
  <g id="kole" transform="translate(-775.463 -1000)">
    <path id="Path_478" data-name="Path 478" class="cls-1" d="M351,21.3v5.522h5l-3.279,2.589V28.376H351V32.69h1.726V31.482L356,28.893h10.355l.173-3.452h12.426l1.035,2.243,3.8-2.243h12.08l1.381,2.243,1.035-2.243h10.872l-.173-1.553h62.99l3.452-2.589H351Z" transform="translate(427.742 1015.459)"/>
    <rect id="Rectangle_1167" data-name="Rectangle 1167" class="cls-2" width="1.553" height="11.39" transform="translate(874.521 1036.759)"/>
    <rect id="Rectangle_1168" data-name="Rectangle 1168" class="cls-2" width="2.071" height="3.279" transform="translate(887.292 1038.484)"/>
    <path id="Path_479" data-name="Path 479" class="cls-2" d="M421.389,30.692h-2.243a.371.371,0,0,1-.345-.345v-8.8a.371.371,0,0,1,.345-.345h2.416a.371.371,0,0,1,.345.345v8.8C421.906,30.519,421.734,30.692,421.389,30.692Z" transform="translate(476.948 1015.386)"/>
    <rect id="Rectangle_1169" data-name="Rectangle 1169" class="cls-2" width="2.416" height="10.7" transform="translate(896.093 1042.626)"/>
    <path id="Path_480" data-name="Path 480" class="cls-2" d="M422.469,31.463H418.5V31.29l.863-.69h2.243l.863.69Z" transform="translate(476.73 1022.208)"/>
    <rect id="Rectangle_1170" data-name="Rectangle 1170" class="cls-2" width="1.553" height="11.39" transform="translate(849.498 1036.759)"/>
    <rect id="Rectangle_1171" data-name="Rectangle 1171" class="cls-2" width="32.444" height="2.071" transform="translate(846.564 1046.423)"/>
    <rect id="Rectangle_1172" data-name="Rectangle 1172" class="cls-2" width="32.444" height="2.071" transform="translate(846.564 1040.901)"/>
    <rect id="Rectangle_1173" data-name="Rectangle 1173" class="cls-2" width="2.071" height="7.593" transform="translate(879.008 1040.901)"/>
    <path id="Path_481" data-name="Path 481" class="cls-2" d="M500.794,37.449H349.1V0H500.794ZM350.481,35.9h148.76V1.553H350.48V35.9Z" transform="translate(426.363 1000)"/>
    <g id="Group_109" data-name="Group 109" transform="translate(905.585 1036.068)">
      <g id="Group_108" data-name="Group 108">
        <path id="Path_482" data-name="Path 482" class="cls-1" d="M438.306,20.9H424.5v3.452l13.806-.69Z" transform="translate(-424.5 -20.9)"/>
      </g>
    </g>
    <g id="Group_110" data-name="Group 110" transform="translate(789.786 1037.622)">
      <path id="Path_483" data-name="Path 483" class="cls-1" d="M375.348,30.947h-1.035a7.461,7.461,0,0,1-2.243,4.66h0a7.5,7.5,0,0,1-10.7,0,7.918,7.918,0,0,1-2.243-4.66H357.4v-.69a9.512,9.512,0,0,1,2.589-6.9h0a6.567,6.567,0,0,1,2.243-1.553h8.974a7.379,7.379,0,0,1,2.243,1.553h0a9.863,9.863,0,0,1,1.9,2.761v4.832Zm-8.629-4.832a4.142,4.142,0,1,0,4.142,4.142A4.2,4.2,0,0,0,366.719,26.114Z" transform="translate(-357.4 -21.8)"/>
      <path id="Path_484" data-name="Path 484" class="cls-1" d="M363.526,25.7a1.729,1.729,0,0,0-1.726,1.726,1.63,1.63,0,0,0,1.726,1.726,1.726,1.726,0,0,0,0-3.452Z" transform="translate(-354.207 -18.97)"/>
      <path id="Path_485" data-name="Path 485" class="cls-1" d="M385.248,30.947h-1.035a7.46,7.46,0,0,1-2.243,4.66h0a7.5,7.5,0,0,1-10.7,0,7.918,7.918,0,0,1-2.243-4.66H367.3v-.69a9.513,9.513,0,0,1,2.589-6.9h0a6.567,6.567,0,0,1,2.243-1.553h8.974a7.38,7.38,0,0,1,2.243,1.553h0a9.864,9.864,0,0,1,1.9,2.761v4.832Zm-8.629-4.832a4.142,4.142,0,1,0,4.142,4.142A4.088,4.088,0,0,0,376.619,26.114Z" transform="translate(-350.215 -21.8)"/>
      <path id="Path_486" data-name="Path 486" class="cls-1" d="M373.426,25.7a1.729,1.729,0,0,0-1.726,1.726,1.726,1.726,0,1,0,1.726-1.726Z" transform="translate(-347.022 -18.97)"/>
      <path id="Path_487" data-name="Path 487" class="cls-1" d="M377.7,30.947h1.035a7.461,7.461,0,0,0,2.243,4.66h0a7.5,7.5,0,0,0,10.7,0,7.918,7.918,0,0,0,2.243-4.66h1.726v-.69a9.512,9.512,0,0,0-2.589-6.9h0a6.567,6.567,0,0,0-2.243-1.553h-8.974a7.379,7.379,0,0,0-2.243,1.553h0a9.863,9.863,0,0,0-1.9,2.761v4.832Zm8.629-4.832a4.142,4.142,0,1,1-4.142,4.142A4.2,4.2,0,0,1,386.329,26.114Z" transform="translate(-342.667 -21.8)"/>
      <path id="Path_488" data-name="Path 488" class="cls-1" d="M383.426,25.7a1.729,1.729,0,0,1,1.726,1.726,1.63,1.63,0,0,1-1.726,1.726,1.726,1.726,0,1,1,0-3.452Z" transform="translate(-339.764 -18.97)"/>
    </g>
    <circle id="Ellipse_12" data-name="Ellipse 12" class="cls-2" cx="3.797" cy="3.797" r="3.797" transform="translate(884.531 1040.901)"/>
    <path id="Path_489" data-name="Path 489" class="cls-2" d="M439.253,1.726c1.553.518,3.106,1.9,3.106,3.624V21.917c0,1.553-1.553,3.106-3.106,3.624V1.726M437.7,0V27.267c2.934,0,6.04-2.416,6.04-5.35V5.35c0-2.934-3.106-5.35-6.04-5.35Z" transform="translate(490.665 1000)"/>
    <path id="Path_490" data-name="Path 490" class="cls-2" d="M440.8,3.6" transform="translate(492.915 1002.613)"/>
    <rect id="Rectangle_1174" data-name="Rectangle 1174" class="cls-2" width="2.934" height="1.553" transform="translate(930.781 1005.522)"/>
    <rect id="Rectangle_1175" data-name="Rectangle 1175" class="cls-2" width="2.934" height="1.553" transform="translate(930.781 1008.801)"/>
    <rect id="Rectangle_1176" data-name="Rectangle 1176" class="cls-2" width="2.934" height="1.553" transform="translate(930.781 1012.08)"/>
    <rect id="Rectangle_1177" data-name="Rectangle 1177" class="cls-2" width="2.934" height="1.553" transform="translate(930.781 1015.359)"/>
  </g>
</svg>
