<svg xmlns="http://www.w3.org/2000/svg" viewBox="0 0 158.943 45.042">
  <defs>
    <style>
      .cls-1, .cls-2 {
        fill: #58585a;
      }

      .cls-1 {
        fill-rule: evenodd;
      }
    </style>
  </defs>
  <g id="maskin" transform="translate(-775.463 -1148.76)">
    <g id="Group_86" data-name="Group 86" transform="translate(789.786 1177.753)">
      <path id="Path_408" data-name="Path 408" class="cls-1" d="M375.348,112.147h-1.035a7.461,7.461,0,0,1-2.243,4.66h0a7.5,7.5,0,0,1-10.7,0,7.918,7.918,0,0,1-2.243-4.66H357.4v-.69a9.512,9.512,0,0,1,2.589-6.9h0A6.567,6.567,0,0,1,362.232,103h8.974a7.379,7.379,0,0,1,2.243,1.553h0a9.863,9.863,0,0,1,1.9,2.761v4.832Zm-8.629-4.832a4.142,4.142,0,1,0,4.142,4.142A4.2,4.2,0,0,0,366.719,107.314Z" transform="translate(-357.4 -103)"/>
      <path id="Path_409" data-name="Path 409" class="cls-1" d="M363.526,106.9a1.729,1.729,0,0,0-1.726,1.726,1.63,1.63,0,0,0,1.726,1.726,1.726,1.726,0,0,0,0-3.452Z" transform="translate(-354.207 -100.17)"/>
      <path id="Path_410" data-name="Path 410" class="cls-1" d="M385.248,112.147h-1.035a7.46,7.46,0,0,1-2.243,4.66h0a7.5,7.5,0,0,1-10.7,0,7.918,7.918,0,0,1-2.243-4.66H367.3v-.69a9.513,9.513,0,0,1,2.589-6.9h0A6.567,6.567,0,0,1,372.132,103h8.974a7.379,7.379,0,0,1,2.243,1.553h0a9.864,9.864,0,0,1,1.9,2.761v4.832Zm-8.456-4.832a4.142,4.142,0,1,0,4.142,4.142A4.32,4.32,0,0,0,376.792,107.314Z" transform="translate(-350.215 -103)"/>
      <path id="Path_411" data-name="Path 411" class="cls-1" d="M373.526,106.9a1.729,1.729,0,0,0-1.726,1.726,1.726,1.726,0,0,0,3.452,0A1.729,1.729,0,0,0,373.526,106.9Z" transform="translate(-346.949 -100.17)"/>
      <path id="Path_412" data-name="Path 412" class="cls-1" d="M377.7,112.147h1.035a7.461,7.461,0,0,0,2.243,4.66h0a7.5,7.5,0,0,0,10.7,0,7.918,7.918,0,0,0,2.243-4.66h1.726v-.69a9.512,9.512,0,0,0-2.589-6.9h0A6.567,6.567,0,0,0,390.816,103h-8.974a7.379,7.379,0,0,0-2.243,1.553h0a9.863,9.863,0,0,0-1.9,2.761v4.832Zm8.629-4.832a4.142,4.142,0,1,1-4.142,4.142A4.2,4.2,0,0,1,386.329,107.314Z" transform="translate(-342.667 -103)"/>
      <path id="Path_413" data-name="Path 413" class="cls-1" d="M383.426,106.9a1.729,1.729,0,0,1,1.726,1.726,1.63,1.63,0,0,1-1.726,1.726,1.726,1.726,0,1,1,0-3.452Z" transform="translate(-339.764 -100.17)"/>
    </g>
    <path id="Path_426" data-name="Path 426" class="cls-1" d="M349.2,102.3v5.695h5l-3.279,2.589v-1.035H349.2v4.314h1.726v-1.208l3.279-2.761h13.806l.173-3.452h12.425l1.035,2.243,3.8-2.243h12.08l1.381,2.416,1.208-2.416h10.7l-.173-1.553h25.2l3.279-2.589H349.2Z" transform="translate(426.435 1074.245)"/>
    <g id="Group_103" data-name="Group 103" transform="translate(901.961 1171.886)">
      <g id="Group_102" data-name="Group 102">
        <path id="Path_462" data-name="Path 462" class="cls-1" d="M436.379,99.6H422.4v3.452l13.979-.69Z" transform="translate(-422.4 -99.6)"/>
      </g>
    </g>
    <path id="Path_464" data-name="Path 464" class="cls-2" d="M464.787,103.964H408.7V94.3h56.087Zm-54.534-1.381h53.153V96.026H410.253Z" transform="translate(469.618 1068.439)"/>
    <path id="Path_493" data-name="Path 493" class="cls-1" d="M437.214,102.2H349.2v4.142h3.106v1.553h82.146l2.761-2.761Z" transform="translate(426.435 1074.173)"/>
    <path id="Path_494" data-name="Path 494" class="cls-1" d="M486.125,99.1H426.931l-.863.345-11.908,5H379.3v2.934h36.068l12.253-5.35h58.5Z" transform="translate(448.281 1071.923)"/>
    <path id="Path_495" data-name="Path 495" class="cls-2" d="M356.25,116.919H350.9V97.072L352.971,86.2h3.279Zm-3.8-1.381h2.416V87.581h-.69l-1.9,9.492Z" transform="translate(427.669 1062.56)"/>
    <path id="Path_496" data-name="Path 496" class="cls-1" d="M352.9,92.5h-2.071a1.729,1.729,0,0,0-1.726,1.726h0a1.729,1.729,0,0,0,1.726,1.726H352.9Z" transform="translate(426.363 1067.133)"/>
    <path id="Path_497" data-name="Path 497" class="cls-1" d="M351.471,98.242h-.518V94.1h-1.208v4.142H349.4V108.6h2.071Z" transform="translate(426.58 1068.294)"/>
    <path id="Path_498" data-name="Path 498" class="cls-2" d="M400.389,111.792h-2.243a.371.371,0,0,1-.345-.345v-8.8a.371.371,0,0,1,.345-.345h2.416a.371.371,0,0,1,.345.345v8.8C400.906,111.619,400.734,111.792,400.389,111.792Z" transform="translate(461.707 1074.245)"/>
    <rect id="Rectangle_1178" data-name="Rectangle 1178" class="cls-2" width="2.416" height="10.7" transform="translate(859.68 1182.585)"/>
    <path id="Path_499" data-name="Path 499" class="cls-2" d="M401.469,112.663H397.5v-.345l.69-.518h2.416l.863.518Z" transform="translate(461.489 1081.14)"/>
  </g>
</svg>
